<?xml version="1.0" standalone="no"?>
<!DOCTYPE svg PUBLIC "-//W3C//DTD SVG 20010904//EN"
 "http://www.w3.org/TR/2001/REC-SVG-20010904/DTD/svg10.dtd">
<svg version="1.0" xmlns="http://www.w3.org/2000/svg"
 width="597.000000pt" height="597.000000pt" viewBox="0 0 597.000000 597.000000"
 preserveAspectRatio="xMidYMid meet">
<metadata>
Created by potrace 1.14, written by Peter Selinger 2001-2017
</metadata>
<g transform="translate(0.000000,597.000000) scale(0.100000,-0.100000)"
fill="#000000" stroke="none">
<path d="M785 3972 c-55 -3 -62 -5 -72 -30 -7 -15 -28 -56 -48 -92 -44 -77
-89 -160 -140 -255 -21 -38 -86 -158 -145 -265 -59 -107 -124 -226 -145 -265
-21 -38 -59 -108 -85 -155 -105 -190 -152 -282 -147 -286 9 -9 94 -14 269 -18
l167 -3 62 114 c33 62 65 115 70 118 20 13 858 21 869 8 5 -4 27 -44 51 -88
23 -44 52 -96 65 -115 l22 -36 203 2 c112 1 212 3 222 3 28 2 14 36 -103 244
-59 106 -202 363 -317 572 -277 500 -263 475 -288 515 l-22 35 -214 0 c-118 0
-241 -1 -274 -3z m335 -333 l42 -13 -7 -85 c-11 -128 -12 -170 -4 -210 l7 -36
1 35 c1 44 26 142 47 192 l17 37 31 -22 c88 -62 129 -117 161 -214 11 -37 28
-62 53 -83 35 -29 37 -34 38 -89 1 -53 -2 -60 -20 -63 -12 -2 -231 -5 -487 -7
l-466 -3 2 55 c1 50 5 59 46 104 25 29 45 61 47 77 5 64 82 173 156 221 47 31
56 17 72 -110 11 -91 15 -61 9 72 l-6 131 58 15 c64 16 140 15 203 -4z"/>
<path d="M2588 3975 c-2 -1 -40 -5 -84 -8 -99 -6 -176 -42 -254 -119 -82 -81
-90 -104 -90 -269 0 -82 5 -159 12 -182 16 -52 99 -142 172 -186 114 -68 120
-69 583 -75 247 -3 429 -9 445 -15 54 -20 78 -99 48 -156 -28 -52 -57 -56
-353 -57 -405 -1 -385 -4 -442 75 l-21 29 -218 0 c-149 1 -221 -3 -229 -11
-17 -17 -12 -71 14 -142 37 -102 139 -193 254 -227 78 -22 126 -24 628 -26
545 -2 559 -1 658 50 62 31 140 110 169 170 19 39 21 60 21 219 0 171 -1 177
-27 220 -41 70 -164 166 -231 180 -10 2 -38 8 -63 14 -26 6 -189 10 -380 11
-481 2 -485 2 -521 36 -24 23 -29 36 -29 74 0 57 20 86 68 99 22 7 148 10 319
8 263 -3 283 -4 304 -22 12 -11 25 -30 29 -41 8 -21 14 -22 228 -23 120 -1
226 1 235 5 24 9 22 97 -2 149 -37 80 -173 188 -266 211 -27 7 -970 15 -977 9z"/>
<path d="M4244 3962 c-15 -2 -24 -13 -28 -34 -3 -18 -6 -314 -6 -658 0 -516 3
-630 14 -646 14 -18 41 -19 748 -19 l733 0 62 26 c74 31 112 61 147 114 39 59
50 108 50 225 0 177 -43 258 -160 297 -32 11 -59 23 -61 29 -2 5 17 20 42 33
46 24 101 90 124 147 24 62 12 230 -24 309 -27 61 -80 110 -160 145 l-60 27
-355 3 c-597 4 -1044 5 -1066 2z m1123 -279 c39 -6 79 -44 88 -83 10 -44 -25
-115 -63 -128 -18 -6 -127 -11 -259 -12 -125 -1 -277 -2 -336 -3 -60 -1 -111
1 -113 4 -4 6 -8 175 -5 212 1 17 20 18 329 16 180 -1 342 -3 359 -6z m-251
-542 l282 -1 30 -28 c40 -37 49 -75 31 -126 -25 -74 -32 -75 -425 -76 l-343 0
0 114 -1 115 33 3 c17 2 50 2 72 1 22 -1 167 -2 321 -2z"/>
<path d="M248 2358 c-55 -73 -198 -298 -198 -312 0 -3 19 -4 42 -3 36 3 45 8
67 42 l26 40 115 0 115 -1 28 -42 c25 -37 33 -42 68 -42 21 0 39 2 39 5 0 12
-175 293 -198 318 -36 38 -73 36 -104 -5z m84 -95 c57 -87 58 -83 -27 -81 -41
1 -75 6 -75 11 0 14 61 107 70 107 4 0 18 -17 32 -37z"/>
<path d="M788 2370 c-20 -15 -164 -231 -212 -317 -5 -10 5 -13 37 -13 40 0 45
3 65 38 l21 38 121 -1 121 0 21 -35 c12 -19 23 -36 24 -38 6 -9 84 -8 84 1 0
9 -110 193 -174 290 -17 26 -36 47 -43 47 -6 0 -18 2 -25 5 -8 3 -26 -3 -40
-15z m87 -142 c19 -34 23 -48 13 -49 -46 -4 -134 -5 -140 -2 -5 2 11 31 33 65
46 68 47 68 94 -14z"/>
<path d="M1110 2212 c0 -127 3 -171 13 -174 27 -10 320 1 348 12 37 16 51 65
48 173 -3 101 -4 108 -36 131 -22 16 -49 19 -199 23 l-174 4 0 -169z m317 86
c20 -16 15 -175 -6 -187 -7 -5 -62 -9 -121 -10 l-108 -2 1 105 c0 87 3 106 16
108 40 8 205 -3 218 -14z"/>
<path d="M1652 2367 c-64 -13 -75 -37 -76 -162 -1 -164 13 -175 239 -172 l130
2 0 30 -1 30 -104 1 c-178 3 -174 1 -184 50 l-7 30 148 0 147 -1 1 28 c2 31
18 28 -175 30 l-115 2 2 29 c3 41 7 43 96 45 34 1 37 3 37 31 0 21 -5 30 -17
31 -59 5 -83 4 -121 -4z"/>
<path d="M2029 2359 c-30 -11 -39 -33 -39 -101 0 -75 14 -82 199 -93 93 -5
115 -18 92 -53 -8 -13 -69 -18 -261 -21 -33 -1 -36 -3 -38 -33 l-2 -33 169 5
c197 6 203 8 204 86 0 100 -18 112 -173 116 -114 2 -120 4 -120 33 0 31 15 39
75 41 28 1 52 2 55 3 3 1 5 13 4 29 -1 27 -2 27 -70 29 -38 1 -81 -3 -95 -8z"/>
<path d="M2405 2198 l0 -173 37 -3 37 -3 3 68 3 68 125 0 125 0 -1 -68 0 -68
35 3 c41 3 37 -12 40 178 3 181 6 167 -36 166 l-36 -1 -1 -60 c-1 -33 -4 -65
-8 -71 -7 -10 -226 -9 -237 1 -3 3 -5 33 -6 68 l-1 62 -40 3 -39 3 0 -173z"/>
<path d="M3180 2362 c-72 -4 -89 -11 -103 -40 -14 -29 -16 -83 -4 -119 11 -31
48 -40 175 -44 42 -1 85 -6 95 -11 20 -10 23 -46 5 -53 -7 -3 -73 -6 -147 -7
l-135 -3 -7 -27 c-4 -18 -3 -28 5 -31 7 -3 82 -6 167 -6 149 -2 155 -1 176 21
16 18 21 36 21 81 0 52 -3 59 -29 78 -25 17 -47 21 -139 23 -123 3 -140 10
-122 51 6 14 15 25 19 24 5 -1 32 -1 61 0 l53 1 -3 32 c-3 34 -6 35 -88 30z"/>
<path d="M3485 2362 c-3 -3 -5 -83 -5 -177 l0 -172 163 2 c230 3 238 9 242
170 3 144 -16 165 -162 171 -54 3 -128 6 -165 8 -38 1 -70 1 -73 -2z m297 -77
c10 -4 20 -14 22 -23 10 -30 -3 -165 -15 -173 -7 -4 -60 -7 -118 -6 l-106 2
-5 40 c-3 22 -3 71 -2 108 l4 69 101 -5 c56 -3 110 -8 119 -12z"/>
<path d="M3968 2363 c-9 -2 -19 -10 -21 -17 -3 -8 -5 -85 -4 -172 l2 -158 33
-3 c36 -3 33 -14 35 140 1 62 5 87 13 85 7 -2 52 -41 101 -88 127 -122 151
-140 184 -140 l29 0 1 73 c1 39 2 116 3 169 2 104 -1 112 -49 104 -17 -2 -19
-13 -22 -107 -2 -57 -6 -110 -8 -117 -3 -9 -28 8 -71 50 -177 171 -197 187
-226 181z"/>
<path d="M4609 2356 c-1 0 -3 -79 -5 -173 l-3 -173 32 -1 c80 -3 295 2 319 7
15 3 32 12 38 20 17 19 19 83 4 120 -7 19 -8 37 -3 45 5 8 9 35 9 61 0 49 -17
77 -48 79 -9 0 -26 2 -37 4 -19 4 -304 14 -306 11z m311 -81 c6 -8 10 -24 8
-37 -3 -22 -6 -23 -125 -26 l-123 -3 0 40 0 40 115 0 c83 -1 117 -4 125 -14z
m8 -163 l-3 -37 -120 -1 c-130 -1 -135 1 -127 55 l3 26 125 -3 125 -3 -3 -37z"/>
<path d="M5059 2333 c-5 -105 -2 -323 4 -324 4 -1 14 -1 22 -1 44 0 45 0 45
66 l0 64 125 1 c90 0 126 -3 127 -12 1 -7 2 -32 4 -57 1 -25 2 -50 3 -56 1 -9
58 -11 67 -1 1 1 4 75 6 164 4 174 4 173 -47 173 -28 0 -32 -10 -30 -82 l2
-58 -129 0 -130 0 4 68 3 67 -37 3 c-31 3 -38 0 -39 -15z"/>
<path d="M5528 2344 c-2 -5 -4 -83 -3 -174 l0 -165 160 0 c88 0 172 3 186 7
38 11 50 43 51 148 2 129 -5 154 -45 168 -39 14 -343 27 -349 16z m310 -78 c3
-4 7 -43 8 -87 1 -76 -8 -106 -34 -110 -21 -3 -199 -5 -207 -2 -10 3 -11 172
-2 198 5 10 30 13 117 10 61 -1 114 -6 118 -9z"/>
</g>
</svg>
